<svg width="50" height="40" viewBox="0 0 50 40" fill="none" xmlns="http://www.w3.org/2000/svg">
<path d="M5 40C3.625 40 2.44833 39.5108 1.47 38.5325C0.49 37.5525 0 36.375 0 35V25C1.375 25 2.5525 24.51 3.5325 23.53C4.51084 22.5517 5 21.375 5 20C5 18.625 4.51084 17.4475 3.5325 16.4675C2.5525 15.4892 1.375 15 0 15V5C0 3.625 0.49 2.44833 1.47 1.47C2.44833 0.49 3.625 0 5 0H45C46.375 0 47.5525 0.49 48.5325 1.47C49.5109 2.44833 50 3.625 50 5V35C50 36.375 49.5109 37.5525 48.5325 38.5325C47.5525 39.5108 46.375 40 45 40H5ZM17.125 29.125L39.375 23.25C40 23.0833 40.4684 22.6975 40.78 22.0925C41.0934 21.4892 41.1667 20.875 41 20.25C40.8334 19.625 40.4684 19.1558 39.905 18.8425C39.3434 18.5308 38.75 18.4583 38.125 18.625L32 20.25L22 10.875L18.5 11.75L24.5 22.25L18.5 23.75L15.375 21.375L13 22L17.125 29.125Z" fill="#F8F8F8"/>
</svg>
