<svg width="40" height="40" viewBox="0 0 40 40" fill="none" xmlns="http://www.w3.org/2000/svg">
<path d="M10.0217 22.5321H11.6438V30.5538H13.1993V22.5321H14.8214V21.1766H10.0217V22.5321ZM18.2212 28.8873C17.9546 29.1984 17.0435 29.8205 17.0435 28.9317V23.6209H15.6658V29.4206C15.6658 31.176 17.4213 30.7094 18.2434 29.7983V30.5538H19.6211V23.6209H18.2434V28.8873H18.2212V28.8873ZM23.3543 23.5764C22.5543 23.5764 22.0432 24.1764 22.0432 24.1764V21.1544H20.6433V30.5538H22.0432V30.0205C22.0432 30.0205 22.5099 30.6427 23.3543 30.6427C24.0876 30.6427 24.6431 29.9983 24.6431 29.1095V25.2652C24.6431 24.2209 24.1542 23.5764 23.3543 23.5764V23.5764ZM23.1987 28.9317C23.1987 29.4428 22.8432 29.6872 22.3765 29.4872C22.2505 29.4283 22.1373 29.3453 22.0432 29.2428V24.9319C22.1321 24.843 22.2432 24.7764 22.3321 24.7097C22.821 24.4653 23.1987 24.843 23.1987 25.3541V28.9317V28.9317ZM28.3318 28.5762C28.3318 29.1095 28.0429 29.465 27.7096 29.4872C27.354 29.5094 26.9985 29.2206 26.9985 28.5762V27.2651H29.6428V25.4874C29.6496 25.2168 29.602 24.9475 29.5027 24.6955C29.4035 24.4436 29.2546 24.2142 29.0651 24.0209C28.6828 23.6722 28.1825 23.4816 27.6651 23.4876C27.1763 23.4876 26.6652 23.6431 26.2652 23.9542C25.843 24.2875 25.5764 24.7986 25.5764 25.4874V28.5984C25.5764 29.2206 25.7763 29.7094 26.0874 30.065C26.4652 30.465 26.9763 30.6872 27.5096 30.7094C28.154 30.7316 28.8428 30.4649 29.2428 29.9094C29.4873 29.5761 29.6428 29.1317 29.6428 28.5984V28.2429H28.3318V28.5762V28.5762ZM26.9985 25.4874C26.9985 25.1097 27.2207 24.6653 27.6429 24.6653C28.0651 24.6653 28.3318 25.0653 28.3318 25.4874V26.1985H26.9985V25.4874V25.4874Z" fill="#F8F8F8"/>
<path d="M19.9989 3.08889e-08C17.3725 0.000145897 14.7718 0.517605 12.3453 1.52283C9.91885 2.52806 7.71415 4.00137 5.85708 5.85865C4.00001 7.71592 2.52694 9.92079 1.52198 12.3474C0.517025 14.7739 -0.000145874 17.3747 3.08636e-08 20.0011C0.000145936 22.6275 0.517606 25.2282 1.52283 27.6547C2.52806 30.0811 4.00137 32.2858 5.85865 34.1429C7.71592 36 9.92079 37.4731 12.3474 38.478C14.7739 39.483 17.3747 40.0001 20.0011 40C25.3054 39.9997 30.3924 37.8923 34.1429 34.1413C37.8934 30.3904 40.0003 25.3032 40 19.9989C39.9997 14.6946 37.8923 9.6076 34.1413 5.85708C30.3904 2.10656 25.3032 -0.000294559 19.9989 3.08889e-08V3.08889e-08ZM23.5098 7.48847H25.2875V13.4437C25.2875 13.8215 25.4653 13.8215 25.5319 13.8215C25.7986 13.8215 26.1985 13.5326 26.3985 13.3326V7.46625H28.1762V15.3325H26.3985V14.6436C26.1541 14.8658 25.9097 15.0436 25.6652 15.1769C25.3319 15.3547 25.0208 15.4214 24.7097 15.4214C24.5394 15.4295 24.3694 15.3999 24.2119 15.3346C24.0544 15.2693 23.9133 15.1699 23.7987 15.0436C23.5987 14.7992 23.5098 14.4214 23.5098 13.9548V7.48847ZM17.8435 9.55502C17.8435 8.33287 18.8434 7.33293 20.0656 7.33293C21.2877 7.33293 22.2877 8.33287 22.2877 9.55502V13.3326C22.2877 14.5547 21.2877 15.5547 20.0656 15.5547C18.8434 15.5547 17.8435 14.5547 17.8435 13.3326V9.55502ZM13.2215 4.77751L14.2881 8.68841L15.3769 4.77751H17.399L15.3103 10.9549V15.3325H13.3326V10.9549L11.1994 4.77751H13.2215V4.77751ZM30.7761 32.6426C29.6428 33.7537 20.0433 33.7759 20.0433 33.7759C20.0433 33.7759 10.4661 33.7537 9.31059 32.6426C8.17732 31.5316 8.17732 25.9986 8.17732 25.9541C8.17732 25.9319 8.17732 20.3989 9.31059 19.2656C10.4439 18.1545 20.0433 18.1323 20.0433 18.1323C20.0433 18.1323 29.6206 18.1545 30.7761 19.2656C31.9093 20.3766 31.9316 25.9097 31.9316 25.9541C31.9316 25.9541 31.9316 31.5094 30.7761 32.6426Z" fill="#F8F8F8"/>
<path d="M20.0212 14.1104C20.3989 14.1104 20.5767 13.8881 20.5989 13.5326V9.31062C20.5989 9.02174 20.31 8.77731 20.0434 8.77731C19.7767 8.77731 19.4879 8.99952 19.4879 9.31062V13.5326C19.4879 13.8659 19.6434 14.0881 20.0212 14.1104Z" fill="#F8F8F8"/>
</svg>
