<svg width="228" height="40" viewBox="0 0 228 40" fill="none" xmlns="http://www.w3.org/2000/svg">
<path d="M71.136 29.5154L66.576 10.0754H68.328L72 26.1794L75.456 10.0754H77.184L72.792 29.5154H71.136ZM79.4942 29.5154V10.0754H81.3182V29.5154H79.4942ZM83.7105 29.5154L87.8145 10.0754H89.7345L93.8625 29.5154H92.0625L91.1025 24.3074H86.4705L85.4865 29.5154H83.7105ZM86.7345 22.9874H90.8625L88.7985 12.4994L86.7345 22.9874ZM94.692 30.3554V28.9874C95.364 28.9874 95.892 28.9474 96.276 28.8674C96.676 28.7714 96.972 28.6034 97.164 28.3634C97.372 28.1234 97.508 27.7794 97.572 27.3314C97.636 26.8834 97.668 26.3074 97.668 25.6034V10.0754H99.492V25.6994C99.492 26.7714 99.396 27.6514 99.204 28.3394C99.012 29.0274 98.636 29.5314 98.076 29.8514C97.516 30.1874 96.684 30.3554 95.58 30.3554H94.692ZM102.883 29.5154V10.0754H109.915V11.4914H104.731V18.7874H108.955V20.1314H104.731V28.1474H109.963V29.5154H102.883ZM116.598 29.7554C115.542 29.7554 114.662 29.5394 113.958 29.1074C113.27 28.6594 112.75 28.0434 112.398 27.2594C112.046 26.4594 111.83 25.5314 111.75 24.4754L113.358 23.9954C113.438 24.7954 113.582 25.5234 113.79 26.1794C113.998 26.8194 114.326 27.3314 114.774 27.7154C115.222 28.0834 115.838 28.2674 116.622 28.2674C117.486 28.2674 118.158 28.0434 118.638 27.5954C119.118 27.1474 119.358 26.4354 119.358 25.4594C119.358 24.5954 119.142 23.8514 118.71 23.2274C118.294 22.6034 117.718 21.9474 116.982 21.2594L113.55 17.9714C112.942 17.3794 112.494 16.7714 112.206 16.1474C111.918 15.5074 111.774 14.8114 111.774 14.0594C111.774 12.7154 112.174 11.6834 112.974 10.9634C113.774 10.2434 114.838 9.88338 116.166 9.88338C116.854 9.88338 117.47 9.97138 118.014 10.1474C118.574 10.3234 119.046 10.6114 119.43 11.0114C119.83 11.3954 120.142 11.8994 120.366 12.5234C120.59 13.1474 120.742 13.9074 120.822 14.8034L119.262 15.2114C119.198 14.3954 119.062 13.6994 118.854 13.1234C118.662 12.5314 118.35 12.0834 117.918 11.7794C117.502 11.4754 116.918 11.3234 116.166 11.3234C115.366 11.3234 114.71 11.5314 114.198 11.9474C113.686 12.3634 113.43 13.0114 113.43 13.8914C113.43 14.4194 113.526 14.8994 113.718 15.3314C113.926 15.7634 114.286 16.2274 114.798 16.7234L118.23 19.9634C118.998 20.6834 119.662 21.4834 120.222 22.3634C120.782 23.2434 121.062 24.2354 121.062 25.3394C121.062 26.3154 120.87 27.1314 120.486 27.7874C120.118 28.4434 119.598 28.9394 118.926 29.2754C118.254 29.5954 117.478 29.7554 116.598 29.7554ZM128.801 29.5154V10.0754H136.313V12.0194H131.513V18.4994H135.233V20.4194H131.513V29.5154H128.801ZM138.176 29.5154V10.0754H145.712V12.0914H140.888V18.5234H144.8V20.4434H140.888V27.5714H145.76V29.5154H138.176ZM147.95 29.5154V10.0754H150.662V27.5714H155.63V29.5154H147.95ZM157.633 29.5154V10.0754H160.297V29.5154H157.633ZM163.442 29.5154V10.0754H168.266C169.434 10.0754 170.362 10.2914 171.05 10.7234C171.754 11.1394 172.266 11.7474 172.586 12.5474C172.906 13.3474 173.066 14.3154 173.066 15.4514C173.066 16.4754 172.882 17.3634 172.514 18.1154C172.162 18.8674 171.634 19.4514 170.93 19.8674C170.226 20.2674 169.346 20.4674 168.29 20.4674H166.154V29.5154H163.442ZM166.154 18.5234H167.402C168.186 18.5234 168.802 18.4354 169.25 18.2594C169.698 18.0834 170.018 17.7794 170.21 17.3474C170.402 16.8994 170.498 16.2754 170.498 15.4754C170.498 14.5474 170.426 13.8354 170.282 13.3394C170.154 12.8434 169.874 12.4994 169.442 12.3074C169.01 12.1154 168.338 12.0194 167.426 12.0194H166.154V18.5234ZM173.003 29.5154L177.131 10.0754H179.747L183.899 29.5154H181.331L180.443 24.6194H176.483L175.547 29.5154H173.003ZM176.843 22.6754H180.083L178.451 13.9154L176.843 22.6754ZM185.271 29.5154V27.5714L190.983 12.0194H185.631V10.0754H193.863V11.2514L187.839 27.5714H193.863V29.5154H185.271ZM200.847 29.7314C199.535 29.7314 198.487 29.4754 197.703 28.9634C196.919 28.4514 196.359 27.7234 196.023 26.7794C195.687 25.8194 195.519 24.6994 195.519 23.4194V16.0514C195.519 14.7714 195.687 13.6754 196.023 12.7634C196.375 11.8354 196.935 11.1314 197.703 10.6514C198.487 10.1554 199.535 9.90738 200.847 9.90738C202.159 9.90738 203.199 10.1554 203.967 10.6514C204.735 11.1474 205.287 11.8514 205.623 12.7634C205.975 13.6754 206.151 14.7714 206.151 16.0514V23.4434C206.151 24.7074 205.975 25.8114 205.623 26.7554C205.287 27.6994 204.735 28.4354 203.967 28.9634C203.199 29.4754 202.159 29.7314 200.847 29.7314ZM200.847 27.5954C201.567 27.5954 202.111 27.4514 202.479 27.1634C202.847 26.8594 203.095 26.4434 203.223 25.9154C203.351 25.3714 203.415 24.7394 203.415 24.0194V15.4994C203.415 14.7794 203.351 14.1634 203.223 13.6514C203.095 13.1234 202.847 12.7234 202.479 12.4514C202.111 12.1634 201.567 12.0194 200.847 12.0194C200.127 12.0194 199.575 12.1634 199.191 12.4514C198.823 12.7234 198.575 13.1234 198.447 13.6514C198.319 14.1634 198.255 14.7794 198.255 15.4994V24.0194C198.255 24.7394 198.319 25.3714 198.447 25.9154C198.575 26.4434 198.823 26.8594 199.191 27.1634C199.575 27.4514 200.127 27.5954 200.847 27.5954ZM213.785 29.7314C212.473 29.7314 211.425 29.4754 210.641 28.9634C209.857 28.4514 209.297 27.7234 208.961 26.7794C208.625 25.8194 208.457 24.6994 208.457 23.4194V16.0514C208.457 14.7714 208.625 13.6754 208.961 12.7634C209.313 11.8354 209.873 11.1314 210.641 10.6514C211.425 10.1554 212.473 9.90738 213.785 9.90738C215.097 9.90738 216.137 10.1554 216.905 10.6514C217.673 11.1474 218.225 11.8514 218.561 12.7634C218.913 13.6754 219.089 14.7714 219.089 16.0514V23.4434C219.089 24.7074 218.913 25.8114 218.561 26.7554C218.225 27.6994 217.673 28.4354 216.905 28.9634C216.137 29.4754 215.097 29.7314 213.785 29.7314ZM213.785 27.5954C214.505 27.5954 215.049 27.4514 215.417 27.1634C215.785 26.8594 216.033 26.4434 216.161 25.9154C216.289 25.3714 216.353 24.7394 216.353 24.0194V15.4994C216.353 14.7794 216.289 14.1634 216.161 13.6514C216.033 13.1234 215.785 12.7234 215.417 12.4514C215.049 12.1634 214.505 12.0194 213.785 12.0194C213.065 12.0194 212.513 12.1634 212.129 12.4514C211.761 12.7234 211.513 13.1234 211.385 13.6514C211.257 14.1634 211.193 14.7794 211.193 15.4994V24.0194C211.193 24.7394 211.257 25.3714 211.385 25.9154C211.513 26.4434 211.761 26.8594 212.129 27.1634C212.513 27.4514 213.065 27.5954 213.785 27.5954Z" fill="white"/>
<path d="M5 40C3.625 40 2.44833 39.5108 1.47 38.5325C0.49 37.5525 0 36.375 0 35V25C1.375 25 2.5525 24.51 3.5325 23.53C4.51084 22.5517 5 21.375 5 20C5 18.625 4.51084 17.4475 3.5325 16.4675C2.5525 15.4892 1.375 15 0 15V5C0 3.625 0.49 2.44833 1.47 1.47C2.44833 0.49 3.625 0 5 0H45C46.375 0 47.5525 0.49 48.5325 1.47C49.5109 2.44833 50 3.625 50 5V35C50 36.375 49.5109 37.5525 48.5325 38.5325C47.5525 39.5108 46.375 40 45 40H5ZM17.125 29.125L39.375 23.25C40 23.0833 40.4684 22.6975 40.78 22.0925C41.0934 21.4892 41.1667 20.875 41 20.25C40.8334 19.625 40.4684 19.1558 39.905 18.8425C39.3434 18.5308 38.75 18.4583 38.125 18.625L32 20.25L22 10.875L18.5 11.75L24.5 22.25L18.5 23.75L15.375 21.375L13 22L17.125 29.125Z" fill="#F8F8F8"/>
</svg>
